# xmcd CD database file
#
# Track frame offsets:
#	183
#	23208
#	45985
#	75800
#	98678
#	116765
#	136140
#	150598
#	173808
#	185675
#	209763
#	222213
#	246023
#	265510
#
# Disc length: 3866 seconds
#
# Revision: 1
# Processed by: cddbd v1.5.2PL0 Copyright (c) Steve Scherf et al.
# Submitted via: CDex 1.51
#
DISCID=b00f180e
DTITLE=Oscar Peterson - Best of CD2 - 2001-Verlag
DYEAR=1971
DGENRE=Jazz
TTITLE0=Teach Me Tonight
TTITLE1=The Windmills Of Your Mind
TTITLE2=I Didn't Know What Time It Was
TTITLE3=All Of You
TTITLE4=Give Me the Simple Life
TTITLE5=Basin Street Blues
TTITLE6=Honeysuckle Rose
TTITLE7=Dancing on the Ceiling
TTITLE8=A Child is Born
TTITLE9=If i Should Lose You
TTITLE10=A Litlle Jazz Exercise
TTITLE11=Django
TTITLE12=Ja Da
TTITLE13=Just A Gigolo
EXTD=YEAR: 1971
EXTT0=
EXTT1=
EXTT2=
EXTT3=
EXTT4=
EXTT5=
EXTT6=
EXTT7=
EXTT8=
EXTT9=
EXTT10=
EXTT11=
EXTT12=
EXTT13=
PLAYORDER=
